fontCallback.success({"glyphs":{"S":{"x_min":64,"x_max":681.046875,"ha":745,"o":"m 681 307 q 613 86 682 178 q 485 -1 568 24 q 381 -15 441 -15 q 200 39 272 -15 q 104 160 140 83 q 64 335 69 236 l 241 348 q 299 192 253 240 q 376 158 332 156 q 474 218 437 159 q 493 300 493 246 q 422 452 493 377 q 256 609 367 505 q 125 770 164 699 q 84 944 84 850 q 197 1199 84 1112 q 370 1252 267 1252 q 541 1207 470 1252 q 630 1110 596 1173 q 671 967 664 1048 l 493 935 q 449 1053 485 1011 q 375 1084 424 1084 q 297 1038 324 1084 q 276 947 276 1002 q 349 775 276 863 q 432 696 376 741 q 518 620 497 642 q 624 484 587 551 q 653 425 642 452 q 681 307 680 359 "},"/":{"x_min":63.78125,"x_max":731.859375,"ha":796,"o":"m 579 1315 l 731 1315 l 215 -37 l 63 -37 l 579 1315 "},"K":{"x_min":64,"x_max":720.953125,"ha":785,"o":"m 251 390 l 251 0 l 64 0 l 64 1237 l 251 1237 l 251 796 l 478 1237 l 678 1237 l 422 730 l 720 0 l 502 0 l 306 500 l 251 390 "},"7":{"x_min":64,"x_max":624.328125,"ha":689,"o":"m 624 1238 l 624 1051 l 362 1 l 180 1 l 441 1050 l 64 1051 l 64 1238 l 624 1238 "},"d":{"x_min":64,"x_max":650,"ha":714,"o":"m 650 295 q 564 86 650 173 q 357 0 478 0 l 64 0 l 64 1237 l 357 1237 q 564 1150 479 1237 q 650 942 650 1063 l 650 295 m 250 184 l 362 184 q 437 216 406 184 q 468 291 468 248 l 468 939 q 436 1015 468 983 q 362 1047 405 1047 l 250 1047 l 250 184 "},",":{"x_min":64,"x_max":251,"ha":316,"o":"m 64 0 l 64 185 l 251 185 l 251 0 l 183 -142 l 104 -142 l 148 0 l 64 0 "},"Y":{"x_min":64,"x_max":750.609375,"ha":815,"o":"m 314 517 l 64 1237 l 269 1237 l 407 793 l 544 1237 l 750 1237 l 500 517 l 500 0 l 314 0 l 314 517 "},"E":{"x_min":64,"x_max":594.734375,"ha":659,"o":"m 64 0 l 64 1237 l 594 1237 l 594 1050 l 250 1050 l 250 712 l 502 712 l 502 525 l 250 525 l 250 187 l 594 187 l 594 0 l 64 0 "},"y":{"x_min":64,"x_max":750.609375,"ha":815,"o":"m 314 517 l 64 1237 l 269 1237 l 407 793 l 544 1237 l 750 1237 l 500 517 l 500 0 l 314 0 l 314 517 "},"\"":{"x_min":64,"x_max":457.609375,"ha":522,"o":"m 92 1150 l 64 1432 l 236 1432 l 208 1150 l 92 1150 m 313 1150 l 284 1432 l 457 1432 l 429 1150 l 313 1150 "},"g":{"x_min":64,"x_max":655,"ha":719,"o":"m 360 -16 q 150 70 236 -16 q 64 279 64 157 l 64 953 q 150 1163 64 1077 q 360 1250 237 1250 q 569 1163 483 1250 q 655 953 655 1076 l 655 812 l 462 812 l 462 958 q 430 1034 462 1002 q 354 1066 398 1066 q 278 1034 309 1066 q 247 958 247 1002 l 247 280 q 278 205 247 236 q 354 174 309 174 q 430 205 398 174 q 462 280 462 236 l 462 524 l 358 524 l 358 711 l 655 711 l 655 278 q 568 69 655 155 q 360 -16 481 -16 "},"e":{"x_min":64,"x_max":594.734375,"ha":659,"o":"m 64 0 l 64 1237 l 594 1237 l 594 1050 l 250 1050 l 250 712 l 502 712 l 502 525 l 250 525 l 250 187 l 594 187 l 594 0 l 64 0 "},"J":{"x_min":64,"x_max":474,"ha":539,"o":"m 474 280 q 387 71 474 156 q 179 -14 301 -14 q 64 0 108 -14 l 90 174 q 144 168 121 168 q 183 169 158 167 q 260 201 229 171 q 291 275 291 231 l 291 1234 l 474 1234 l 474 280 "},"|":{"x_min":64,"x_max":242,"ha":306,"o":"m 64 1629 l 242 1629 l 242 -102 l 64 -102 l 64 1629 "},"‐":{"x_min":64,"x_max":616.4375,"ha":681,"o":"m 64 711 l 616 711 l 616 524 l 64 524 l 64 711 "},"^":{"x_min":64,"x_max":462.546875,"ha":527,"o":"m 308 1432 l 462 1086 l 333 1086 l 263 1254 l 194 1086 l 64 1086 l 217 1432 l 308 1432 "},"q":{"x_min":64,"x_max":686.484375,"ha":751,"o":"m 655 281 q 615 133 655 201 q 686 104 640 104 l 686 -69 q 495 18 546 -69 q 359 -15 432 -15 q 150 71 236 -15 q 64 281 64 158 l 64 955 q 150 1165 64 1079 q 360 1252 237 1252 q 569 1164 483 1252 q 655 956 655 1077 l 655 281 m 462 960 q 430 1035 462 1004 q 354 1067 398 1067 q 278 1035 309 1067 q 247 960 247 1004 l 247 282 q 278 207 247 238 q 354 176 309 176 q 430 207 398 176 q 462 282 462 238 l 462 960 "},"b":{"x_min":64,"x_max":692,"ha":757,"o":"m 64 0 l 64 1237 l 343 1237 q 542 1178 453 1237 q 651 1025 618 1129 q 669 894 669 970 q 602 695 669 770 q 537 647 575 663 q 642 553 599 623 q 685 431 671 506 q 692 345 692 392 q 647 146 692 227 q 550 43 613 81 q 409 0 479 0 l 64 0 m 265 184 l 342 184 q 474 281 437 184 q 487 358 487 315 q 447 509 487 462 q 342 553 412 553 l 265 553 l 265 184 m 265 732 l 343 732 q 460 816 430 732 q 471 894 471 848 q 433 1011 471 971 q 343 1048 398 1048 l 265 1048 l 265 732 "},"D":{"x_min":64,"x_max":650,"ha":714,"o":"m 650 295 q 564 86 650 173 q 357 0 478 0 l 64 0 l 64 1237 l 357 1237 q 564 1150 479 1237 q 650 942 650 1063 l 650 295 m 250 184 l 362 184 q 437 216 406 184 q 468 291 468 248 l 468 939 q 436 1015 468 983 q 362 1047 405 1047 l 250 1047 l 250 184 "},"z":{"x_min":64,"x_max":608.546875,"ha":673,"o":"m 608 1236 l 608 1049 l 265 185 l 608 185 l 608 0 l 64 0 l 64 184 l 408 1049 l 64 1049 l 64 1236 l 608 1236 "},"w":{"x_min":64,"x_max":1025.84375,"ha":1090,"o":"m 830 1236 l 1025 1236 l 832 0 l 654 0 l 548 677 l 449 0 l 271 0 l 64 1236 l 259 1236 l 356 574 l 446 1236 l 642 1236 l 739 573 l 830 1236 "},"$":{"x_min":64,"x_max":681.15625,"ha":746,"o":"m 681 316 q 591 67 684 156 q 452 0 534 15 l 452 -86 l 294 -86 l 294 4 q 122 137 182 33 q 64 344 70 225 l 242 357 q 299 201 254 247 q 376 167 332 165 q 474 227 437 168 q 493 309 493 255 q 423 461 493 385 q 256 618 367 514 q 132 768 170 700 q 84 953 84 853 q 129 1127 84 1048 q 294 1252 184 1225 l 294 1332 l 452 1332 l 452 1252 q 576 1188 526 1235 q 672 976 662 1107 l 493 944 q 449 1063 485 1019 q 376 1093 426 1093 q 298 1047 325 1093 q 277 956 277 1011 q 350 783 277 872 q 432 705 376 751 q 519 629 497 651 q 624 493 588 558 q 681 316 679 396 "},"\\":{"x_min":64.015625,"x_max":731.9375,"ha":796,"o":"m 64 1314 l 214 1314 l 731 -37 l 579 -37 l 64 1314 "},"~":{"x_min":64,"x_max":667.734375,"ha":732,"o":"m 444 1368 q 486 1359 467 1359 q 564 1417 521 1360 l 667 1340 q 481 1232 583 1228 q 331 1284 424 1232 q 241 1321 265 1321 q 167 1266 209 1321 l 64 1343 q 245 1449 144 1452 q 349 1420 291 1448 q 444 1368 397 1394 "},"-":{"x_min":64,"x_max":616.4375,"ha":681,"o":"m 64 711 l 616 711 l 616 524 l 64 524 l 64 711 "},"Q":{"x_min":64,"x_max":686.484375,"ha":751,"o":"m 655 281 q 615 133 655 201 q 686 104 640 104 l 686 -69 q 495 18 546 -69 q 359 -15 432 -15 q 150 71 236 -15 q 64 281 64 158 l 64 955 q 150 1165 64 1079 q 360 1252 237 1252 q 569 1164 483 1252 q 655 956 655 1077 l 655 281 m 462 960 q 430 1035 462 1004 q 354 1067 398 1067 q 278 1035 309 1067 q 247 960 247 1004 l 247 282 q 278 207 247 238 q 354 176 309 176 q 430 207 398 176 q 462 282 462 238 l 462 960 "},"M":{"x_min":64,"x_max":929,"ha":993,"o":"m 250 0 l 64 0 l 64 1237 l 331 1237 l 505 348 l 672 1237 l 929 1237 l 929 0 l 743 0 l 743 777 l 580 0 l 430 0 l 250 775 l 250 0 "},"C":{"x_min":64,"x_max":655,"ha":719,"o":"m 360 -16 q 150 70 236 -16 q 64 279 64 156 l 64 953 q 150 1163 64 1077 q 360 1250 237 1250 q 569 1163 483 1250 q 655 953 655 1076 l 655 812 l 462 812 l 462 958 q 430 1034 462 1002 q 354 1066 398 1066 q 278 1034 309 1066 q 247 958 247 1002 l 247 280 q 278 205 247 236 q 354 174 309 174 q 430 205 398 174 q 462 280 462 236 l 462 451 l 655 451 l 655 279 q 568 69 655 155 q 360 -16 481 -16 "},"[":{"x_min":64,"x_max":378,"ha":442,"o":"m 64 1314 l 378 1314 l 378 1127 l 251 1127 l 251 184 l 378 184 l 378 -1 l 64 -1 l 64 1314 "},"L":{"x_min":64,"x_max":572.046875,"ha":636,"o":"m 572 0 l 64 0 l 64 1236 l 250 1236 l 250 185 l 572 185 l 572 0 "},"!":{"x_min":64,"x_max":250,"ha":315,"o":"m 64 545 l 64 1237 l 250 1237 l 250 545 l 237 306 l 78 306 l 64 545 m 64 0 l 64 187 l 250 187 l 250 0 l 64 0 "}," ":{"x_min":0,"x_max":0,"ha":128},"{":{"x_min":64,"x_max":464.515625,"ha":529,"o":"m 162 1087 q 233 1278 162 1224 q 464 1331 301 1331 l 464 1201 q 348 1178 378 1201 q 318 1081 318 1154 l 318 816 q 293 725 318 769 q 224 660 266 676 q 291 597 263 645 q 318 503 318 554 l 318 237 q 348 140 318 163 q 464 118 378 118 l 464 -11 q 233 41 301 -11 q 162 232 162 95 l 162 423 q 153 550 162 525 q 64 611 132 606 l 64 707 q 153 769 132 713 q 162 895 162 793 l 162 1087 "},"X":{"x_min":64,"x_max":751.59375,"ha":816,"o":"m 751 0 l 550 0 l 408 392 l 264 0 l 64 0 l 306 621 l 64 1236 l 270 1236 l 408 854 l 545 1236 l 751 1236 l 508 621 l 751 0 "},"P":{"x_min":64,"x_max":650,"ha":714,"o":"m 357 1236 q 575 1150 494 1236 q 650 941 650 1068 l 650 761 q 564 552 650 639 q 357 466 479 466 l 250 466 l 250 0 l 64 0 l 64 1236 l 357 1236 m 469 938 q 439 1016 469 986 q 362 1046 410 1046 l 250 1046 l 250 650 l 362 650 q 437 681 406 650 q 469 757 469 713 l 469 938 "},"%":{"x_min":64,"x_max":922,"ha":987,"o":"m 374 781 q 328 673 374 718 q 219 628 282 628 q 109 673 154 628 q 64 781 64 718 l 64 1135 q 109 1244 64 1199 q 219 1290 154 1290 q 328 1244 283 1290 q 374 1135 374 1198 l 374 781 m 160 784 q 176 744 160 760 q 216 728 192 728 q 255 744 239 728 q 272 784 272 760 l 272 1136 q 255 1176 272 1160 q 216 1193 239 1193 q 176 1176 192 1193 q 160 1136 160 1160 l 160 784 m 768 655 q 877 609 832 655 q 922 500 922 563 l 922 146 q 876 38 922 82 q 768 -6 831 -6 q 658 38 703 -6 q 613 146 613 83 l 613 500 q 658 609 613 564 q 768 655 703 655 m 821 501 q 804 541 821 525 q 765 558 788 558 q 725 541 741 558 q 709 501 709 525 l 709 149 q 725 109 709 125 q 765 93 741 93 q 804 109 788 93 q 821 149 821 125 l 821 501 m 232 -21 l 122 -21 l 754 1287 l 863 1287 l 232 -21 "},"#":{"x_min":64,"x_max":1074.1875,"ha":1138,"o":"m 851 716 l 811 480 l 1004 480 l 975 293 l 780 293 l 732 0 l 546 0 l 594 293 l 434 293 l 385 0 l 199 0 l 247 293 l 64 293 l 92 480 l 278 480 l 317 716 l 134 716 l 162 903 l 348 903 l 403 1238 l 590 1238 l 534 903 l 695 903 l 750 1238 l 937 1238 l 881 903 l 1074 903 l 1045 716 l 851 716 m 664 716 l 503 716 l 465 480 l 625 480 l 664 716 "},"_":{"x_min":64,"x_max":1017.953125,"ha":1082,"o":"m 64 -207 l 64 -70 l 1017 -70 l 1017 -207 l 64 -207 "},"+":{"x_min":64,"x_max":700,"ha":764,"o":"m 451 674 l 700 674 l 700 536 l 451 536 l 451 287 l 313 287 l 313 536 l 64 536 l 64 674 l 313 674 l 313 922 l 451 922 l 451 674 "},")":{"x_min":64,"x_max":433,"ha":497,"o":"m 184 1406 q 308 1182 252 1304 q 433 676 433 911 q 308 151 433 440 q 184 -91 253 22 l 64 -29 q 159 211 118 90 q 247 561 224 402 q 255 676 255 621 q 160 1124 255 861 q 66 1350 119 1240 l 184 1406 "},"'":{"x_min":64,"x_max":236.640625,"ha":301,"o":"m 64 1432 l 236 1432 l 208 1150 l 92 1150 l 64 1432 "},"}":{"x_min":64,"x_max":464.515625,"ha":529,"o":"m 389 733 q 464 698 407 703 l 464 602 q 405 585 422 598 q 376 541 388 572 q 368 494 370 525 q 368 414 368 479 l 368 223 q 294 32 368 86 q 64 -19 228 -19 l 64 109 q 180 131 150 109 q 211 228 211 154 l 211 494 q 237 587 211 539 q 303 651 263 635 q 238 713 265 666 q 211 807 211 759 l 211 1073 q 180 1170 211 1147 q 64 1192 150 1192 l 64 1322 q 294 1269 226 1322 q 368 1078 368 1215 l 368 886 q 368 807 368 822 q 389 733 371 764 "},"a":{"x_min":64,"x_max":738.0625,"ha":802,"o":"m 304 284 l 258 0 l 64 0 l 274 1236 l 530 1236 l 738 0 l 543 0 l 498 284 l 304 284 m 401 952 l 332 466 l 470 466 l 401 952 "},"T":{"x_min":65,"x_max":646,"ha":710,"o":"m 263 1049 l 65 1049 l 65 1236 l 646 1236 l 646 1049 l 449 1049 l 449 0 l 263 0 l 263 1049 "},"=":{"x_min":64,"x_max":699.3125,"ha":764,"o":"m 64 702 l 64 840 l 699 840 l 699 702 l 64 702 m 64 431 l 64 569 l 699 569 l 699 431 l 64 431 "},"N":{"x_min":64,"x_max":707,"ha":771,"o":"m 273 1237 l 521 403 l 521 1237 l 707 1237 l 707 0 l 506 0 l 250 792 l 250 0 l 64 0 l 64 1237 l 273 1237 "},"":{"x_min":0,"x_max":0,"ha":505},"2":{"x_min":64,"x_max":672,"ha":736,"o":"m 67 887 q 161 1156 67 1063 q 376 1238 243 1238 q 585 1146 499 1238 q 672 932 672 1054 q 615 688 672 805 q 472 464 585 623 q 381 329 441 421 l 348 279 q 298 201 315 229 q 290 184 290 187 l 656 184 l 656 1 l 64 1 l 64 171 q 105 239 64 177 q 147 302 123 268 l 196 372 q 329 559 238 431 q 457 777 415 679 q 492 925 492 856 q 460 1021 492 982 q 371 1063 426 1063 q 261 973 294 1063 q 251 902 251 943 l 251 855 l 67 855 l 67 887 "},"j":{"x_min":64,"x_max":474,"ha":539,"o":"m 474 280 q 387 71 474 156 q 179 -14 301 -14 q 64 0 108 -14 l 90 174 q 144 168 121 168 q 183 169 158 167 q 260 201 229 171 q 291 275 291 231 l 291 1234 l 474 1234 l 474 280 "},"Z":{"x_min":64,"x_max":608.546875,"ha":673,"o":"m 608 1236 l 608 1049 l 265 185 l 608 185 l 608 0 l 64 0 l 64 184 l 408 1049 l 64 1049 l 64 1236 l 608 1236 "},"u":{"x_min":64,"x_max":655,"ha":719,"o":"m 359 -14 q 149 71 235 -14 q 64 280 64 157 l 64 1236 l 247 1236 l 247 281 q 278 206 247 237 q 354 175 310 175 q 429 206 398 175 q 461 281 461 237 l 461 1236 l 655 1236 l 655 280 q 568 70 655 155 q 359 -14 481 -14 "},"1":{"x_min":64,"x_max":409,"ha":474,"o":"m 222 0 l 222 951 l 64 951 l 64 1082 q 191 1132 131 1090 q 278 1237 252 1175 l 409 1237 l 409 0 l 222 0 "},"k":{"x_min":64,"x_max":720.953125,"ha":785,"o":"m 251 390 l 251 0 l 64 0 l 64 1237 l 251 1237 l 251 796 l 478 1237 l 678 1237 l 422 730 l 720 0 l 502 0 l 306 500 l 251 390 "},"<":{"x_min":64,"x_max":682.53125,"ha":747,"o":"m 682 941 l 682 783 l 257 608 l 682 429 l 682 274 l 64 541 l 64 676 l 682 941 "},"t":{"x_min":65,"x_max":646,"ha":710,"o":"m 263 1049 l 65 1049 l 65 1236 l 646 1236 l 646 1049 l 449 1049 l 449 0 l 263 0 l 263 1049 "},"W":{"x_min":64,"x_max":1025.84375,"ha":1090,"o":"m 830 1236 l 1025 1236 l 832 0 l 654 0 l 548 677 l 449 0 l 271 0 l 64 1236 l 259 1236 l 356 574 l 446 1236 l 642 1236 l 739 573 l 830 1236 "},"v":{"x_min":63.875,"x_max":766.390625,"ha":831,"o":"m 284 0 l 63 1236 l 259 1236 l 414 275 l 571 1236 l 766 1236 l 541 0 l 284 0 "},">":{"x_min":64,"x_max":682.53125,"ha":747,"o":"m 64 941 l 682 673 l 682 538 l 64 273 l 64 430 l 489 607 l 64 784 l 64 941 "},"s":{"x_min":64,"x_max":681.046875,"ha":745,"o":"m 681 307 q 613 86 682 178 q 485 -1 568 24 q 381 -15 441 -15 q 200 39 272 -15 q 104 160 140 83 q 64 335 69 236 l 241 348 q 299 192 253 240 q 376 158 332 156 q 474 218 437 159 q 493 300 493 246 q 422 452 493 377 q 256 609 367 505 q 125 770 164 699 q 84 944 84 850 q 197 1199 84 1112 q 370 1252 267 1252 q 541 1207 470 1252 q 630 1110 596 1173 q 671 967 664 1048 l 493 935 q 449 1053 485 1011 q 375 1084 424 1084 q 297 1038 324 1084 q 276 947 276 1002 q 349 775 276 863 q 432 696 376 741 q 518 620 497 642 q 624 484 587 551 q 653 425 642 452 q 681 307 680 359 "},"B":{"x_min":64,"x_max":692,"ha":757,"o":"m 64 0 l 64 1237 l 343 1237 q 542 1178 453 1237 q 651 1025 618 1129 q 669 894 669 970 q 602 695 669 770 q 537 647 575 663 q 642 553 599 623 q 685 431 671 506 q 692 345 692 392 q 647 146 692 227 q 550 43 613 81 q 409 0 479 0 l 64 0 m 265 184 l 342 184 q 474 281 437 184 q 487 358 487 315 q 447 509 487 462 q 342 553 412 553 l 265 553 l 265 184 m 265 732 l 343 732 q 460 816 430 732 q 471 894 471 848 q 433 1011 471 971 q 343 1048 398 1048 l 265 1048 l 265 732 "},"?":{"x_min":64,"x_max":653,"ha":717,"o":"m 364 1253 q 591 1145 514 1253 q 653 946 653 1060 q 480 582 653 754 q 415 441 419 521 q 414 382 414 415 l 414 308 l 227 308 l 227 382 q 312 642 227 557 q 440 830 405 733 q 460 949 460 886 q 431 1049 460 1013 q 339 1084 399 1092 q 258 1006 283 1077 q 243 937 247 976 l 64 968 q 140 1163 73 1084 q 267 1240 186 1216 q 364 1253 309 1253 m 227 179 l 414 179 l 414 -8 l 227 -8 l 227 179 "},"H":{"x_min":64,"x_max":662,"ha":726,"o":"m 251 524 l 251 0 l 64 0 l 64 1236 l 251 1236 l 251 711 l 475 711 l 475 1236 l 662 1236 l 662 0 l 475 0 l 475 524 l 251 524 "},"c":{"x_min":64,"x_max":655,"ha":719,"o":"m 360 -16 q 150 70 236 -16 q 64 279 64 156 l 64 953 q 150 1163 64 1077 q 360 1250 237 1250 q 569 1163 483 1250 q 655 953 655 1076 l 655 812 l 462 812 l 462 958 q 430 1034 462 1002 q 354 1066 398 1066 q 278 1034 309 1066 q 247 958 247 1002 l 247 280 q 278 205 247 236 q 354 174 309 174 q 430 205 398 174 q 462 280 462 236 l 462 451 l 655 451 l 655 279 q 568 69 655 155 q 360 -16 481 -16 "},"&":{"x_min":64,"x_max":795.984375,"ha":860,"o":"m 791 582 q 670 248 746 384 q 795 182 742 182 l 795 9 q 572 109 687 9 q 335 -8 461 -8 q 112 112 189 -8 q 64 285 64 188 q 110 485 64 381 q 162 575 118 501 q 211 651 187 615 l 173 739 q 136 826 146 800 q 108 917 116 876 q 100 1004 100 961 q 136 1155 100 1086 q 244 1265 173 1228 q 368 1296 300 1296 q 507 1258 444 1296 q 604 1153 570 1220 q 631 1035 631 1098 q 553 823 631 924 l 512 771 q 411 636 457 699 q 551 395 473 507 q 622 619 597 500 l 791 582 m 272 1005 q 328 813 272 949 q 352 843 340 828 l 376 875 l 415 928 q 459 1034 459 985 q 449 1090 459 1071 q 368 1153 424 1153 q 293 1100 320 1153 q 272 1005 272 1059 m 335 163 q 454 234 391 163 q 302 473 378 332 q 266 412 284 443 q 237 285 237 343 q 259 201 237 234 q 335 163 286 163 "},"I":{"x_min":64,"x_max":250,"ha":315,"o":"m 250 0 l 64 0 l 64 1236 l 250 1236 l 250 0 "},"G":{"x_min":64,"x_max":655,"ha":719,"o":"m 360 -16 q 150 70 236 -16 q 64 279 64 157 l 64 953 q 150 1163 64 1077 q 360 1250 237 1250 q 569 1163 483 1250 q 655 953 655 1076 l 655 812 l 462 812 l 462 958 q 430 1034 462 1002 q 354 1066 398 1066 q 278 1034 309 1066 q 247 958 247 1002 l 247 280 q 278 205 247 236 q 354 174 309 174 q 430 205 398 174 q 462 280 462 236 l 462 524 l 358 524 l 358 711 l 655 711 l 655 278 q 568 69 655 155 q 360 -16 481 -16 "},"(":{"x_min":64,"x_max":433.9375,"ha":498,"o":"m 430 1351 q 336 1125 377 1241 q 250 792 271 943 q 243 677 243 733 q 338 212 243 497 q 433 -29 380 88 l 313 -91 q 188 152 243 23 q 64 677 64 441 q 141 1073 64 864 q 188 1182 161 1125 q 313 1407 244 1305 l 430 1351 "},"`":{"x_min":64,"x_max":337.265625,"ha":402,"o":"m 64 1397 l 236 1397 l 337 1114 l 221 1114 l 64 1397 "},"U":{"x_min":64,"x_max":655,"ha":719,"o":"m 359 -14 q 149 71 235 -14 q 64 280 64 157 l 64 1236 l 247 1236 l 247 281 q 278 206 247 237 q 354 175 310 175 q 429 206 398 175 q 461 281 461 237 l 461 1236 l 655 1236 l 655 280 q 568 70 655 155 q 359 -14 481 -14 "},"F":{"x_min":64,"x_max":594.734375,"ha":659,"o":"m 250 0 l 64 0 l 64 1237 l 594 1237 l 594 1050 l 250 1050 l 250 712 l 502 712 l 502 525 l 250 525 l 250 0 "},"r":{"x_min":64,"x_max":689.4375,"ha":754,"o":"m 358 1236 q 586 1150 513 1236 q 651 941 651 1075 l 651 761 q 551 539 651 630 l 689 0 l 488 0 l 375 466 q 358 466 367 466 l 250 466 l 250 0 l 64 0 l 64 1236 l 358 1236 m 469 938 q 362 1046 469 1046 l 250 1046 l 250 650 l 362 650 q 437 681 406 650 q 469 757 469 713 l 469 938 "},":":{"x_min":64,"x_max":251,"ha":316,"o":"m 64 185 l 251 185 l 251 0 l 64 0 l 64 185 m 64 710 l 251 710 l 251 523 l 64 523 l 64 710 "},"x":{"x_min":64,"x_max":751.59375,"ha":816,"o":"m 751 0 l 550 0 l 408 392 l 264 0 l 64 0 l 306 621 l 64 1236 l 270 1236 l 408 854 l 545 1236 l 751 1236 l 508 621 l 751 0 "},"*":{"x_min":64,"x_max":553.3125,"ha":618,"o":"m 553 1002 l 402 975 l 504 868 l 376 774 l 305 909 l 233 774 l 103 868 l 212 977 l 64 1002 l 115 1151 l 250 1085 l 228 1238 l 385 1238 l 363 1083 l 504 1151 l 553 1002 "},"V":{"x_min":63.875,"x_max":766.390625,"ha":831,"o":"m 284 0 l 63 1236 l 259 1236 l 414 275 l 571 1236 l 766 1236 l 541 0 l 284 0 "},"h":{"x_min":64,"x_max":662,"ha":726,"o":"m 251 524 l 251 0 l 64 0 l 64 1236 l 251 1236 l 251 711 l 475 711 l 475 1236 l 662 1236 l 662 0 l 475 0 l 475 524 l 251 524 "},"0":{"x_min":64,"x_max":655,"ha":719,"o":"m 655 282 q 568 72 655 158 q 360 -13 481 -13 q 150 73 236 -13 q 64 282 64 159 l 64 956 q 150 1166 64 1080 q 360 1253 237 1253 q 569 1166 483 1253 q 655 956 655 1079 l 655 282 m 462 961 q 430 1037 462 1005 q 354 1069 398 1069 q 278 1037 309 1069 q 247 961 247 1005 l 247 284 q 278 208 247 240 q 354 177 309 177 q 430 208 398 177 q 462 284 462 240 l 462 961 "},".":{"x_min":64,"x_max":250,"ha":315,"o":"m 64 185 l 250 185 l 250 -1 l 64 -1 l 64 185 "},"@":{"x_min":64,"x_max":1324.75,"ha":1389,"o":"m 1121 189 l 1324 189 l 1306 165 q 1044 -38 1202 35 q 721 -110 890 -110 q 252 78 440 -110 q 64 576 64 266 q 239 1095 64 884 q 727 1307 415 1307 q 1033 1235 916 1307 q 1311 714 1311 1065 q 1200 353 1311 516 q 884 170 1075 170 q 752 251 784 170 q 670 191 706 209 q 569 170 627 170 q 355 282 430 170 q 290 526 290 379 q 376 867 290 710 q 651 1055 480 1055 q 829 962 759 1055 l 838 1028 l 1024 1028 l 917 349 q 932 333 917 333 q 1048 395 989 333 q 1123 507 1092 442 q 1164 714 1164 594 q 1046 1035 1164 912 q 730 1158 928 1158 q 357 1002 504 1158 q 211 584 211 847 q 344 194 211 344 q 720 38 483 38 q 1117 185 937 38 l 1121 189 m 741 513 q 775 753 775 639 q 754 850 775 811 q 675 901 728 901 q 522 731 574 901 q 485 480 485 610 q 506 374 485 419 q 589 315 535 315 q 695 385 654 315 q 741 513 718 424 "},"f":{"x_min":64,"x_max":594.734375,"ha":659,"o":"m 250 0 l 64 0 l 64 1237 l 594 1237 l 594 1050 l 250 1050 l 250 712 l 502 712 l 502 525 l 250 525 l 250 0 "},";":{"x_min":64,"x_max":250,"ha":315,"o":"m 64 186 l 250 186 l 250 -1 l 183 -143 l 104 -143 l 147 -1 l 64 -1 l 64 186 m 64 710 l 250 710 l 250 523 l 64 523 l 64 710 "},"i":{"x_min":64,"x_max":250,"ha":315,"o":"m 250 0 l 64 0 l 64 1236 l 250 1236 l 250 0 "},"6":{"x_min":64,"x_max":626,"ha":691,"o":"m 432 930 l 432 961 q 407 1037 432 1006 q 339 1069 383 1069 q 271 1037 295 1069 q 247 961 247 1006 l 247 714 q 387 771 310 771 q 571 685 510 771 q 626 477 626 610 l 626 265 l 625 265 q 539 66 619 146 q 345 -13 460 -13 q 141 74 221 -13 q 64 282 64 159 l 64 956 q 107 1120 64 1047 q 232 1229 151 1193 q 345 1253 283 1253 q 548 1164 467 1253 q 626 956 626 1079 l 626 930 l 432 930 m 247 284 q 269 209 247 239 q 339 177 294 177 q 408 209 383 177 q 432 284 432 239 l 432 513 q 392 602 432 567 q 340 619 373 619 q 266 581 291 619 q 247 510 247 549 l 247 284 "},"A":{"x_min":64,"x_max":738.0625,"ha":802,"o":"m 304 284 l 258 0 l 64 0 l 274 1236 l 530 1236 l 738 0 l 543 0 l 498 284 l 304 284 m 401 952 l 332 466 l 470 466 l 401 952 "},"n":{"x_min":64,"x_max":707,"ha":771,"o":"m 273 1237 l 521 403 l 521 1237 l 707 1237 l 707 0 l 506 0 l 250 792 l 250 0 l 64 0 l 64 1237 l 273 1237 "},"O":{"x_min":64,"x_max":655,"ha":719,"o":"m 359 1252 q 568 1165 482 1252 q 655 955 655 1078 l 655 281 q 568 71 655 157 q 359 -15 481 -15 q 149 71 235 -15 q 64 281 64 158 l 64 955 q 150 1165 64 1079 q 359 1252 237 1252 m 461 960 q 429 1035 461 1004 q 354 1067 398 1067 q 278 1035 310 1067 q 247 960 247 1004 l 247 282 q 278 207 247 238 q 354 176 310 176 q 429 207 398 176 q 461 282 461 238 l 461 960 "},"3":{"x_min":64,"x_max":669,"ha":733,"o":"m 354 177 q 483 296 483 177 l 483 369 q 283 559 483 559 l 283 719 q 441 780 390 719 q 489 931 489 834 l 489 960 q 382 1082 489 1082 q 296 1036 324 1082 q 276 947 276 1002 l 276 914 l 93 914 l 93 943 q 160 1158 93 1075 q 374 1253 235 1253 q 584 1164 505 1253 q 655 964 655 1084 l 655 912 q 586 713 655 797 q 517 653 556 677 q 645 511 599 606 q 669 394 669 463 l 669 296 q 575 71 669 159 q 359 -13 485 -13 q 149 73 235 -13 q 64 282 64 160 l 64 312 l 242 326 l 246 282 q 279 206 249 236 q 354 177 308 177 "},"]":{"x_min":64,"x_max":377,"ha":441,"o":"m 64 1315 l 377 1315 l 377 -1 l 64 -1 l 64 186 l 191 186 l 191 1128 l 64 1128 l 64 1315 "},"m":{"x_min":64,"x_max":929,"ha":993,"o":"m 250 0 l 64 0 l 64 1237 l 331 1237 l 505 348 l 672 1237 l 929 1237 l 929 0 l 743 0 l 743 777 l 580 0 l 430 0 l 250 775 l 250 0 "},"9":{"x_min":64,"x_max":626,"ha":691,"o":"m 345 1253 q 548 1164 467 1253 q 626 956 626 1079 l 626 282 q 545 72 626 158 q 345 -13 465 -13 q 141 74 221 -13 q 64 282 64 159 l 64 308 l 257 308 l 257 278 q 281 201 257 232 q 349 171 305 171 q 417 201 393 171 q 442 277 442 232 l 442 525 q 301 467 377 467 q 118 553 179 467 q 64 762 64 628 l 64 974 l 64 974 q 113 1129 68 1060 q 235 1231 158 1197 q 345 1253 285 1253 m 442 955 q 417 1031 442 1000 q 349 1063 393 1063 q 281 1031 305 1063 q 257 955 257 1000 l 257 726 q 296 636 257 671 q 348 619 314 619 q 437 694 419 619 q 442 729 442 717 l 442 955 "},"l":{"x_min":64,"x_max":572.046875,"ha":636,"o":"m 572 0 l 64 0 l 64 1236 l 250 1236 l 250 185 l 572 185 l 572 0 "},"8":{"x_min":64,"x_max":670,"ha":734,"o":"m 670 282 q 583 72 670 158 q 373 -13 496 -13 l 359 -13 q 149 73 235 -13 q 64 282 64 160 l 64 394 q 139 592 64 508 q 215 653 172 629 q 99 781 141 691 q 79 897 79 827 l 79 964 q 150 1164 79 1085 q 359 1253 228 1253 l 373 1253 q 583 1164 505 1253 q 655 964 655 1084 l 655 897 q 585 706 655 782 q 517 653 555 672 q 646 511 600 606 q 670 394 670 463 l 670 282 m 484 369 q 433 518 484 480 q 367 536 409 536 q 265 472 292 536 q 250 369 250 434 l 250 310 q 287 211 250 249 q 367 178 319 179 q 473 253 443 181 q 484 310 484 276 l 484 369 m 489 914 q 409 1074 487 1041 q 367 1082 391 1082 q 288 1055 318 1082 q 253 999 263 1033 q 245 914 243 965 q 270 798 247 833 q 367 751 300 751 q 464 801 433 751 q 489 914 489 843 "},"p":{"x_min":64,"x_max":650,"ha":714,"o":"m 357 1236 q 575 1150 494 1236 q 650 941 650 1068 l 650 761 q 564 552 650 639 q 357 466 479 466 l 250 466 l 250 0 l 64 0 l 64 1236 l 357 1236 m 469 938 q 439 1016 469 986 q 362 1046 410 1046 l 250 1046 l 250 650 l 362 650 q 437 681 406 650 q 469 757 469 713 l 469 938 "},"4":{"x_min":64,"x_max":699.3125,"ha":764,"o":"m 64 454 l 393 1238 l 580 1238 l 580 454 l 699 454 l 699 267 l 580 267 l 580 1 l 394 1 l 394 267 l 64 267 l 64 454 m 394 454 l 393 839 l 240 454 l 394 454 "},"R":{"x_min":64,"x_max":689.4375,"ha":754,"o":"m 358 1236 q 586 1150 513 1236 q 651 941 651 1075 l 651 761 q 551 539 651 630 l 689 0 l 488 0 l 375 466 q 358 466 367 466 l 250 466 l 250 0 l 64 0 l 64 1236 l 358 1236 m 469 938 q 362 1046 469 1046 l 250 1046 l 250 650 l 362 650 q 437 681 406 650 q 469 757 469 713 l 469 938 "},"o":{"x_min":64,"x_max":655,"ha":719,"o":"m 359 1252 q 568 1165 482 1252 q 655 955 655 1078 l 655 281 q 568 71 655 157 q 359 -15 481 -15 q 149 71 235 -15 q 64 281 64 158 l 64 955 q 150 1165 64 1079 q 359 1252 237 1252 m 461 960 q 429 1035 461 1004 q 354 1067 398 1067 q 278 1035 310 1067 q 247 960 247 1004 l 247 282 q 278 207 247 238 q 354 176 310 176 q 429 207 398 176 q 461 282 461 238 l 461 960 "},"5":{"x_min":64,"x_max":641,"ha":705,"o":"m 270 1051 l 270 785 q 347 846 297 824 q 410 857 374 857 q 590 771 532 857 q 641 562 641 697 l 641 295 q 554 70 641 158 q 345 -14 471 -14 q 141 74 222 -14 q 64 282 64 159 l 64 311 l 243 325 l 247 282 q 307 183 253 208 q 340 176 322 176 q 455 295 455 176 l 455 598 q 415 688 455 653 q 363 705 396 705 q 289 666 313 705 q 270 595 270 633 l 270 562 l 83 562 l 83 1238 l 628 1238 l 628 1051 l 270 1051 "}}}
